# xmcd
#
# Track frame offsets:
#	150
#	36255
#	53767
#	92087
#	115365
#	138862
#	163632
#
# Disc length: 2498 seconds
#
# Revision: 7
# Processed by: cddbd v1.5.2PL0 Copyright (c) Steve Scherf et al.
# Submitted via: audiograbber 1.83.01
#
DISCID=5709c007
DTITLE=Washington jr., Grover - Paradise
DYEAR=1979
DGENRE=Jazz
TTITLE0=Paradise
TTITLE1=Icey
TTITLE2=The answer in your eyes
TTITLE3=Asia's theme
TTITLE4=Shana
TTITLE5=Tell me about it now
TTITLE6=Feel it comin'
EXTD=
EXTT0=
EXTT1=
EXTT2=
EXTT3=
EXTT4=
EXTT5=
EXTT6=
PLAYORDER=
